REM GENRE Soundtrack
REM DATE 2013
REM DISCID E70E1C0E
REM COMMENT "ExactAudioCopy v1.0b3"
PERFORMER " Howard Shore"
TITLE "The Hobbit - The Desolation of Smaug"
FILE "Howard Shore - The Hobbit - The Desolation of Smaug.wv" WAVE
  TRACK 01 AUDIO
    TITLE "The Quest For Erebor"
    PERFORMER " Howard Shore"
    INDEX 01 00:00:00
  TRACK 02 AUDIO
    TITLE "Wilderland"
    PERFORMER " Howard Shore"
    INDEX 00 03:21:37
    INDEX 01 03:23:56
  TRACK 03 AUDIO
    TITLE "A Necromancer"
    PERFORMER " Howard Shore"
    INDEX 00 08:17:65
    INDEX 01 08:20:12
  TRACK 04 AUDIO
    TITLE "The House Of Beorn (Extended Version)"
    PERFORMER " Howard Shore"
    INDEX 00 11:12:65
    INDEX 01 11:14:63
  TRACK 05 AUDIO
    TITLE "Mirkwood (Extended Version)"
    PERFORMER " Howard Shore"
    INDEX 00 16:05:06
    INDEX 01 16:07:28
  TRACK 06 AUDIO
    TITLE "Flies And Spiders (Extended Version)"
    PERFORMER " Howard Shore"
    INDEX 00 21:36:38
    INDEX 01 21:38:54
  TRACK 07 AUDIO
    TITLE "The Woodland Realm (Extended Version)"
    PERFORMER " Howard Shore"
    INDEX 00 31:11:65
    INDEX 01 31:14:17
  TRACK 08 AUDIO
    TITLE "Feast Of Starlight"
    PERFORMER " Howard Shore"
    INDEX 00 36:26:72
    INDEX 01 36:29:15
  TRACK 09 AUDIO
    TITLE "Barrels Out Of Bond"
    PERFORMER " Howard Shore"
    INDEX 00 39:16:42
    INDEX 01 39:17:15
  TRACK 10 AUDIO
    TITLE "The Forest River (Extended Version)"
    PERFORMER " Howard Shore"
    INDEX 00 41:06:13
    INDEX 01 41:07:17
  TRACK 11 AUDIO
    TITLE "Bard, A Man Of Lake-Town (Extended Version)"
    PERFORMER " Howard Shore"
    INDEX 00 46:15:25
    INDEX 01 46:17:64
  TRACK 12 AUDIO
    TITLE "The High Fells [Extended Version]"
    PERFORMER " Howard Shore"
    INDEX 00 49:33:58
    INDEX 01 49:36:20
  TRACK 13 AUDIO
    TITLE "The Nature Of Evil"
    PERFORMER " Howard Shore"
    INDEX 00 53:13:05
    INDEX 01 53:15:08
  TRACK 14 AUDIO
    TITLE "Protector Of The Common Folk"
    PERFORMER " Howard Shore"
    INDEX 00 56:32:42
    INDEX 01 56:35:68
